<svg fill="none" height="100" viewBox="0 0 380 100" width="380" xmlns="http://www.w3.org/2000/svg" xmlns:xlink="http://www.w3.org/1999/xlink"><clipPath id="a"><path d="m0 0h380v100h-380z"/></clipPath><g clip-path="url(#a)" fill="#4e5fff"><path d="m0 84.12h50.85v-18.54h-10.44v12.06h-19.53v-23.04h11.88v5.4h6.66v-17.28h-6.66v5.4h-11.88v-20.34h18.81v10.26h10.44v-16.74h-50.13v5.94h6.3v50.94h-6.3z"/><path d="m77.1694 85.2c6.48 0 10.89-3.87 12.51-8.1h.45v8.1l19.0796-3.87v-5.13l-5.4-1.17v-59.31l-19.0796 3.87v5.13l5.4 1.17v17.91h-.45c-1.71-4.14-5.76-7.92-12.51-7.92-11.52 0-18.72 9.81-18.72 24.66s7.2 24.66 18.72 24.66zm4.59-8.28c-4.95 0-8.82-3.6-8.82-10.26v-12.33c0-6.66 3.87-10.26 8.82-10.26 4.77 0 8.37 3.33 8.37 8.28v16.29c0 4.95-3.6 8.28-8.37 8.28z"/><path d="m127.015 30.75c4.95 0 8.01-2.97 8.01-7.65v-.45c0-4.68-3.06-7.65-8.01-7.65s-8.01 2.97-8.01 7.65v.45c0 4.68 3.06 7.65 8.01 7.65zm-12.15 53.37h24.48v-5.94h-5.4v-42.3l-19.08 3.87v5.13l5.4 1.17v32.13h-5.4z"/><path d="m160.311 85.02c6.21 0 11.61-.9 13.5-1.71v-5.31h-10.35v-34.74h10.35v-6.3h-10.35v-13.05h-6.75l-3.78 7.83c-1.62 3.42-3.06 5.22-7.02 5.22h-2.43v6.3h6.3v32.31c0 6.21 3.33 9.45 10.53 9.45z"/><path d="m201.445 78.72c-5.4 0-8.28-3.42-8.28-9.9v-16.56c0-6.48 2.88-9.9 8.28-9.9s8.28 3.42 8.28 9.9v16.56c0 6.48-2.88 9.9-8.28 9.9zm0 6.48c13.68 0 22.77-9.09 22.77-24.66s-9.09-24.66-22.77-24.66-22.77 9.09-22.77 24.66 9.09 24.66 22.77 24.66z"/><path d="m230.968 84.12h26.28v-5.94h-7.2v-26.64c0-3.87 3.87-8.64 7.65-8.64.36 0 .54 0 .81.09l.09.45c-.81.36-1.53 1.71-1.53 3.15 0 3.24 2.34 5.94 6.66 5.94 4.59 0 7.2-2.97 7.2-7.74 0-5.49-3.6-8.91-9.45-8.91-5.94 0-9.72 3.96-11.34 8.91h-.36v-8.91l-18.81 3.87v5.13l5.4 1.17v32.13h-5.4z"/><path d="m287.503 30.75c4.95 0 8.01-2.97 8.01-7.65v-.45c0-4.68-3.06-7.65-8.01-7.65s-8.01 2.97-8.01 7.65v.45c0 4.68 3.06 7.65 8.01 7.65zm-12.15 53.37h24.48v-5.94h-5.4v-42.3l-19.08 3.87v5.13l5.4 1.17v32.13h-5.4z"/><path d="m319.719 85.2c8.19 0 11.16-4.23 12.87-8.19h.54v.18c0 4.5 2.43 8.01 9 8.01 3.42 0 6.93-.72 9-1.89v-5.13h-5.4v-26.28c0-10.08-6.12-16.02-19.17-16.02s-19.89 5.76-19.89 11.61c0 3.87 2.7 6.66 6.3 6.66 4.5 0 6.84-2.79 6.84-6.39 0-2.61-1.44-4.14-2.61-4.77v-.45c1.35-.63 3.06-.99 5.58-.99 6.75 0 9.27 3.78 9.27 11.07v5.13h-6.3c-13.59 0-20.61 4.77-20.61 13.95 0 8.46 4.41 13.5 14.58 13.5zm5.13-8.1c-3.69 0-6.21-1.71-6.21-5.58v-1.44c0-4.41 2.79-6.93 8.55-6.93h4.86v7.11c0 5.04-2.79 6.84-7.2 6.84z"/><path d="m356.015 84.12h24.48v-5.94h-5.4v-62.46l-19.08 3.87v5.13l5.4 1.17v52.29h-5.4z"/></g></svg>